<?xml version="1.0" encoding="UTF-8" standalone="no"?>
<svg
   version="1.1"
   id="svg97467"
   width="2000"
   height="1333"
   viewBox="0 0 2000 1333"
   xmlns:xlink="http://www.w3.org/1999/xlink"
   xmlns="http://www.w3.org/2000/svg"
   xmlns:svg="http://www.w3.org/2000/svg"
   xmlns:rdf="http://www.w3.org/1999/02/22-rdf-syntax-ns#"
   xmlns:cc="http://creativecommons.org/ns#"
   xmlns:dc="http://purl.org/dc/elements/1.1/">
  <metadata
     id="metadata97473">
    <rdf:RDF>
      <cc:Work
         rdf:about="">
        <dc:format>image/svg+xml</dc:format>
        <dc:type
           rdf:resource="http://purl.org/dc/dcmitype/StillImage" />
      </cc:Work>
    </rdf:RDF>
  </metadata>
  <defs
     id="defs97471">
    <linearGradient
       id="linearGradient17">
      <stop
         style="stop-color:#000000;stop-opacity:0.2;"
         offset="0"
         id="stop17" />
      <stop
         style="stop-color:#000000;stop-opacity:0;"
         offset="1"
         id="stop18" />
    </linearGradient>
    <radialGradient
       xlink:href="#linearGradient17"
       id="radialGradient18"
       cx="1612.4189"
       cy="1044.0507"
       fx="1612.4189"
       fy="1044.0507"
       r="1179.7227"
       gradientTransform="matrix(0.01750582,-1.0796831,1.658426,0.02688942,-205.21229,2490.2856)"
       gradientUnits="userSpaceOnUse" />
  </defs>
  <g
     id="g97475"
     transform="translate(399.24905,523.82166)">
    <path
       id="path1479"
       style="color:#000000;font-style:normal;font-variant:normal;font-weight:normal;font-stretch:normal;font-size:medium;line-height:normal;font-family:sans-serif;font-variant-ligatures:normal;font-variant-position:normal;font-variant-caps:normal;font-variant-numeric:normal;font-variant-alternates:normal;font-variant-east-asian:normal;font-feature-settings:normal;font-variation-settings:normal;text-indent:0;text-align:start;text-decoration:none;text-decoration-line:none;text-decoration-style:solid;text-decoration-color:#000000;letter-spacing:normal;word-spacing:normal;text-transform:none;writing-mode:lr-tb;direction:ltr;text-orientation:mixed;dominant-baseline:auto;baseline-shift:baseline;text-anchor:start;white-space:normal;shape-padding:0;shape-margin:0;inline-size:0;clip-rule:nonzero;display:inline;overflow:visible;visibility:visible;opacity:1;isolation:auto;mix-blend-mode:normal;color-interpolation:sRGB;color-interpolation-filters:linearRGB;solid-color:#000000;solid-opacity:1;vector-effect:none;fill:url(#radialGradient18);fill-opacity:1;fill-rule:nonzero;stroke:none;stroke-linecap:butt;stroke-linejoin:miter;stroke-miterlimit:4;stroke-dasharray:none;stroke-dashoffset:0;stroke-opacity:1;color-rendering:auto;image-rendering:auto;shape-rendering:auto;text-rendering:auto;enable-background:accumulate;stop-color:#000000;stop-opacity:1"
       d="m 411.80368,-633.58143 -176.14062,188.17969 c -6.7272,-5.76113 -15.46615,-9.24046 -25.01758,-9.24023 -16.42676,4.6e-4 -30.44858,10.29452 -35.96875,24.7832 l -234.810546,-67.89844 c 8e-5,-6.3e-4 -7.9e-5,-0.001 0,-0.002 0.198026,-1.58187 0.300821,-3.19452 0.300782,-4.83008 -6e-4,-21.2508 -17.227666,-38.47791 -38.478516,-38.47851 -19.97852,-4.7e-4 -36.40044,15.22437 -38.29688,34.70507 l -128.01757,54.99024 c -5.06068,-2.44872 -10.73927,-3.8221 -16.73828,-3.82227 -15.64443,-3.6e-4 -29.10891,9.33585 -35.125,22.74024 l -129.98633,-29.0918 -3.27539,14.63867 129.92187,29.07422 c -0.0106,0.37155 -0.0156,0.74503 -0.0156,1.11914 5.7e-4,20.27706 15.68549,36.89047 35.58398,38.3711 l 102.37891,158.16406 c -3.52307,5.39713 -5.72701,11.73295 -6.15625,18.55078 l -168.67969,61.67578 c -6.06636,-3.995 -13.32986,-6.3205 -21.13672,-6.32031 -21.25239,-5e-4 -38.48098,17.22807 -38.48047,38.48047 5.9e-4,20.896268 16.65761,37.902495 37.41797,38.464841 l 79.24805,125.185547 c -1.50177,2.772152 -2.6731,5.749184 -3.46094,8.878906 l -4.25391,1.761719 3.33008,3.353515 c -0.15755,1.414421 -0.23831,2.852127 -0.23828,4.308594 1.5e-4,5.30959 1.07648,10.367465 3.02149,14.96875 l -280.15235,194.203128 195.8125,143.28125 c -0.45002,2.35403 -0.6856,4.78433 -0.68555,7.26953 5e-4,17.39649 11.54473,32.09695 27.39063,36.85742 l 55.81445,183.95117 c -5.99174,6.78457 -9.62716,15.69767 -9.62695,25.46094 1e-4,3.75589 0.53953,7.38674 1.54297,10.81836 1.8e-4,6e-4 -1.8e-4,10e-4 0,0.002 L -534.23928,806.9049 -277.8428,925.20959 -164.54788,782.82482 c 6.40641,4.7653 14.34535,7.58419 22.94336,7.58399 21.25163,-6e-4 38.47903,-17.22887 38.47852,-38.48047 -5e-5,-1.63828 -0.10202,-3.25349 -0.30078,-4.83789 L 96.055637,655.45959 c 5.625013,14.27719 19.539393,24.38124 35.814453,24.38086 6.59564,-1.9e-4 12.80479,-1.65968 18.23047,-4.58398 L 283.1865,803.44201 c -0.26831,1.83381 -0.40815,3.70893 -0.40821,5.61719 -4.5e-4,21.2524 17.22812,38.48097 38.48047,38.48047 21.25159,-6e-4 38.47897,-17.22887 38.47852,-38.48047 -4.1e-4,-14.49097 -8.01129,-27.11115 -19.84571,-33.67383 l 147.85547,-132.8457 c 4.3e-4,2.9e-4 0.002,-3e-4 0.002,0 6.22408,4.3277 13.7861,6.86347 21.9414,6.86328 21.25159,-6e-4 38.47897,-17.22887 38.47852,-38.48047 -9e-5,-3.38981 -0.43857,-6.67713 -1.26172,-9.80859 l 81.01562,-47.5 c 3.04367,5.41063 7.35687,10.01119 12.53711,13.39648 l -46.01367,453.51563 14.92383,1.5137 45.58984,-449.33597 c 2.1197,0.36192 4.29863,0.55072 6.52149,0.55078 5.90947,1.4e-4 11.50837,-1.33073 16.51172,-3.71094 l 185.76367,210.42579 c -3.78634,5.95795 -5.98026,13.02732 -5.98047,20.60937 -5e-4,21.2524 17.22807,38.48097 38.48047,38.48047 21.08431,5e-4 38.20945,-16.95622 38.47851,-37.97656 l 261.28124,-45.54492 c 7.0093,9.47524 18.2642,15.61943 30.9551,15.61914 2.0551,-6e-5 4.0731,-0.16233 6.041,-0.47266 v 0 l 137.5469,161.63477 199.6133,-200.51758 c 6.2296,4.34011 13.8026,6.88495 21.9707,6.88476 21.2516,5e-4 38.4799,-17.22691 38.4805,-38.47851 4e-4,-18.83193 -13.5266,-34.50477 -31.3946,-37.83008 l 5.5996,-216.26758 c 0.3243,0.008 0.6485,0.0117 0.9746,0.0117 21.2516,-6e-4 38.4791,-17.22887 38.4786,-38.48047 -3e-4,-8.18467 -2.5555,-15.77313 -6.9122,-22.00976 l 140.6504,-92 -278.955,-74.6211 c 0.3061,-1.95509 0.4648,-3.95897 0.4648,-6 4e-4,-18.88481 -13.6024,-34.59241 -31.5449,-37.85742 l 14.9277,-74.21875 c 3.6075,1.11925 7.4425,1.72275 11.418,1.72266 15.3522,-3.7e-4 28.605,-8.990616 34.7793,-21.994145 l 114.4883,40.718755 5.0254,-14.13282 -115.8575,-41.205076 c 0.03,-0.617785 0.043,-1.24015 0.043,-1.865234 4e-4,-15.41513 -9.063,-28.713542 -22.1523,-34.855469 l -0.6739,-184.009761 c 14.5094,-3.49798 25.8139,-15.21772 28.7071,-29.95313 l 148.625,-36.96289 11.6152,-352.13086 -150.3145,133.07227 c -7.0516,-8.80025 -17.8907,-14.43716 -30.0449,-14.4375 -10.9921,-2.6e-4 -20.9078,4.60936 -27.9199,12 l -112.7891,-60.0918 0.543,-0.20703 -6.1387,-2.77539 -35.4277,-18.875 0.1152,2.91015 -165.2363,-74.70507 -4.0547,-8.50586 -9.5703,2.3457 -40.9941,-18.5332 5.8261,27.15429 -181.20305,44.41211 c -6.9164,-6.65129 -16.31461,-10.73994 -26.66797,-10.74023 -21.2517,-5e-4 -38.47997,17.22681 -38.48047,38.47851 -3.7e-4,15.7001 9.40175,29.20523 22.88281,35.18946 l 8.71484,40.86523 c -12.57611,5.44496 -21.67298,17.40768 -23.02929,31.62891 l -265.90039,43.45703 c -6.66238,-11.46522 -19.07754,-19.17343 -33.29297,-19.17383 -8.07269,-1.9e-4 -15.56413,2.48648 -21.75195,6.73438 z m -2.53711,24.66016 144.16602,236.55078 c -3.77636,5.95262 -5.9627,13.01278 -5.96289,20.58399 -4e-5,1.86034 0.13158,3.69064 0.38672,5.48047 l -49.87891,34.7246 c -12.11918,-10.32472 -27.83336,-16.55668 -45.00195,-16.55664 -0.15169,-5e-4 -0.30339,-5e-4 -0.45508,0 -24.09657,0.1579 -45.25897,12.57797 -57.58789,31.31836 L 246.85056,-403.09314 c 1.47318,-4.08037 2.2755,-8.48193 2.27539,-13.07032 -1.8e-4,-6.21954 -1.47538,-12.09375 -4.0957,-17.29297 z m 754.20113,24.80859 174.1465,78.73438 0.055,1.4375 -135.1777,51.46289 c -6.9954,-9.61345 -18.3358,-15.86292 -31.1348,-15.86328 -2.0239,-5e-5 -4.0116,0.15598 -5.9512,0.45703 l -21.7148,-101.22461 z m -37.3945,4.40235 0.9492,4.41601 -178.41403,135.33008 c -6.74583,-5.83496 -15.54091,-9.36496 -25.16015,-9.36523 -0.2033,-10e-6 -0.40488,0.003 -0.60743,0.006 h -0.002 l -7.3418,-34.42969 c 21.04804,-0.2374 38.03761,-17.37438 38.03711,-38.47852 -1.2e-4,-5.1286 -1.00302,-10.02178 -2.82422,-14.49609 -2.2e-4,-5.5e-4 2.3e-4,-0.001 0,-0.002 z m 4.4219,20.60937 20.6953,96.46094 c -8.4204,5.19141 -14.6896,13.53649 -17.1602,23.38867 l -172.47066,23.06055 c -0.58915,-4.24183 -1.87,-8.26332 -3.72461,-11.94531 z m 552.2988,19.68946 -10.0957,305.98632 -134.1113,33.35352 c -3.5022,-16.61622 -17.7276,-29.28074 -35.0977,-30.41992 l 15.0371,-147.64844 c 0.016,2e-5 0.031,0 0.047,0 21.2508,-6e-4 38.4779,-17.22771 38.4785,-38.47851 10e-5,-3.55015 -0.4809,-6.98793 -1.3808,-10.25196 z m -323.5371,43.30273 123.3711,65.72852 c -1.637,4.27335 -2.5353,8.91251 -2.5352,13.76172 2e-4,5.27154 1.0618,10.2963 2.9805,14.87109 3e-4,5.6e-4 -2e-4,10e-4 0,0.002 l -105.3008,100.08203 c -4.9569,-3.98717 -10.9237,-6.77114 -17.455,-7.9082 l -7.2364,-184.18359 z m -1494.1953,5.35352 c 4.99186,15.46224 19.50341,26.64688 36.62695,26.64648 14.312011,-4e-4 26.798961,-7.814 33.427734,-19.4082 l 235.177736,68.00586 -149.876954,35.625 c -6.598799,-11.7052 -19.148112,-19.61092 -33.542969,-19.61133 -17.154284,-4e-4 -31.685783,11.2251 -36.652344,26.73047 l -193.113283,-43.2168 v -0.002 c 0.005,-0.24258 0.006,-0.48487 0.006,-0.72852 1.9e-4,-9.09882 -3.15788,-17.45943 -8.4375,-24.04687 z m 1473.2285,2.6289 7.0274,178.89258 c -7.7953,1.72572 -14.7008,5.81525 -19.9278,11.47852 l -121.8652,-110.98243 c 3.9902,-6.06396 6.3107,-13.32328 6.3105,-21.125 -10e-5,-3.08565 -0.3627,-6.08537 -1.0488,-8.96093 -10e-5,-6.1e-4 2e-4,-0.001 0,-0.002 z m -204.9726,64.10547 c 0.395,2.59429 1.0477,5.10323 1.9336,7.5 l -143.67583,146.58985 c -5.22583,-2.65404 -11.13985,-4.15054 -17.40235,-4.1504 -4.52792,1.3e-4 -8.87334,0.78221 -12.9082,2.21875 l -27.88086,-101.80273 c 13.27272,-3.53749 23.7231,-13.99213 27.25391,-27.26758 z m 10.0898,20.60742 c 7.0138,7.40916 16.9414,12.03151 27.9492,12.03125 8.0225,-2.2e-4 15.4715,-2.45626 21.6367,-6.65625 l 124.461,113.34375 c -1.4643,4.06946 -2.2619,8.45744 -2.2617,13.03125 0,2.46006 0.2305,4.86749 0.6718,7.19922 l -162.9824,38.36328 c -6.6458,-11.53147 -19.0979,-19.2933 -33.3633,-19.29297 -17.2014,4.9e-4 -31.7668,11.2873 -36.6933,26.85938 l -70.461,-12.32031 c 0.1913,-1.55506 0.289,-3.13932 0.2891,-4.7461 2e-4,-9.54193 -3.4718,-18.27161 -9.2227,-24.99609 z m -1389.49219,2.08399 194.613284,43.55273 c 0.195436,2.34407 0.602444,4.6282 1.199218,6.83399 l -84.769532,116.15429 c -4.50026,-1.84602 -9.42843,-2.86509 -14.59375,-2.86523 -7.94537,-1.9e-4 -15.32845,2.40721 -21.45898,6.5332 l -96.79688,-149.53906 c 9.76737,-3.6514 17.65309,-11.15964 21.80664,-20.66992 z m 421.24805,0.0801 c 5.82572,13.84554 19.51874,23.56595 35.48242,23.5664 0.86553,2e-5 1.72488,-0.0277 2.57617,-0.084 l 25.36524,133.48242 c -7.66219,3.41306 -14.00287,9.25606 -18.04297,16.55078 l -102.70899,-43.96289 c 0.39048,-2.19868 0.59369,-4.46262 0.59375,-6.77344 5.1e-4,-21.2516 -17.22688,-38.47987 -38.478511,-38.48047 -9.022168,-2.1e-4 -17.31936,3.10512 -23.88086,8.30469 l -39.769531,-27.57617 c 5.648883,-6.6967 9.052468,-15.34809 9.052734,-24.79492 3.8e-5,-1.54352 -0.09091,-3.06454 -0.267578,-4.56055 z m 711.47851,1.65625 c 0.1301,0.42588 0.26778,0.85006 0.41211,1.26953 2.1e-4,5.8e-4 -2e-4,0.001 0,0.002 l -57.12304,109.5 c -11.06003,1.01962 -20.76367,6.71973 -27.11328,15.10156 l -178.43164,-76.20312 c 0.0294,-0.61736 0.043,-1.23864 0.043,-1.86328 -3e-5,-1.66067 -0.10445,-3.29713 -0.30859,-4.90235 z m -647.57812,9.37695 148.96875,106.90625 c -2.89884,7.64844 -4.48653,15.94023 -4.48633,24.60156 0,4.17054 0.36749,8.2565 1.07227,12.22461 l -94.30078,23.98438 c -5.43628,-14.65455 -19.54368,-25.09805 -36.08985,-25.09766 -0.33435,1e-5 -0.66769,0.005 -1,0.0137 l -25.48242,-134.09765 c 4.28794,-2.13035 8.12183,-5.03611 11.31836,-8.53516 z m 1252.54685,1.05078 c 3.4693,3.40747 7.5822,6.16256 12.1387,8.06641 l -15.5469,152.67968 c -14.9947,5.25533 -25.7476,19.53286 -25.748,36.32227 -2e-4,7.81781 2.3306,15.09061 6.3359,21.16211 l -106.6621,122.691405 c -4.5294,-1.874218 -9.4944,-2.908056 -14.7012,-2.908203 -0.1077,-3e-6 -0.2147,0.0011 -0.3222,0.002 l 8.7168,-182.093742 c 20.2511,-1.1153 36.3295,-17.89011 36.33,-38.41993 2e-4,-6.6992 -1.7105,-12.99842 -4.7207,-18.48437 z m -595.32224,5.57422 c 5.76486,5.74434 13.34044,9.67047 21.79687,10.84961 l 29.84961,108.99414 c -5.5126,5.14142 -9.51318,11.88245 -11.26172,19.48437 l -65.07812,-11.76562 c -2.08068,-14.47416 -12.21824,-26.34611 -25.7207,-30.92578 z m -938.783204,47.4375 c 7.05858,8.32926 17.596118,13.61551 29.369141,13.61523 6.1354971,-1.7e-4 11.9351099,-1.43588 17.0820311,-3.99023 l 42.3515629,29.36523 c -3.081892,5.53476 -4.838054,11.90885 -4.837891,18.69336 4.5e-4,15.9293 9.68052,29.59836 23.478516,35.44532 L 53.418919,-108.099 c -11.856875,0.85582 -22.226128,7.08333 -28.683594,16.261715 L -113.37991,-186.2533 c 1.43897,-4.0379 2.22254,-8.38797 2.22266,-12.91992 2.2e-4,-10.67923 -4.34995,-20.34276 -11.375,-27.31446 z m 663.173824,0.95898 175.58399,74.98633 c -0.80512,3.09965 -1.23446,6.35154 -1.23438,9.70313 1.4e-4,4.94832 0.93522,9.67815 2.63672,14.02343 l -72.83008,100.95508 c -12.33189,0.50663 -23.16731,6.81624 -29.8457,16.27149 l -73.66016,-44.01563 c 5.02481,-6.50205 8.01389,-14.65665 8.01368,-23.50976 -6e-4,-21.2508 -17.22768,-38.47792 -38.47852,-38.47852 -4.01245,-9e-5 -7.88085,0.61459 -11.51758,1.75391 l -0.24218,-90.40821 c 2.22182,0.39895 4.50904,0.60748 6.8457,0.60743 15.31079,-4.4e-4 28.53286,-8.94188 34.72851,-21.88868 z m -67.55468,3.5 c 2.81012,4.58179 6.55213,8.52955 10.96289,11.58008 l 0.28125,105.43164 c -3.73911,3.5517 -6.76603,7.8464 -8.8418,12.64844 l -40.87305,-24.75977 c 4.95412,-9.55499 7.75197,-20.40792 7.75196,-31.91406 2e-5,-15.71294 -5.21951,-30.20645 -14.01953,-41.8418 z m -440.76172,73.97071 103.61914,44.35547 c -0.15354,1.39662 -0.23246,2.81442 -0.23242,4.25195 1.6e-4,5.68582 1.23555,11.08456 3.44922,15.9414 L 86.924778,-92.927129 C 82.266029,-99.07985 75.800441,-103.78885 68.317356,-106.26307 l 11.425781,-133.72851 c 0.06881,3.6e-4 0.138138,0 0.207032,0 13.610894,-3.9e-4 25.571431,-7.06754 32.412111,-17.73242 z m 1209.23242,7.32226 c 4.5891,6.90962 11.3508,12.25043 19.3105,15.04883 l -8.9726,187.447266 c -4.8934,2.155006 -9.2522,5.300986 -12.8242,9.18164 l -58.7227,-71.175776 c 9.1838,-7.0325 15.1058,-18.10965 15.1055,-30.57032 -6e-4,-21.2516 -17.2289,-38.47901 -38.4805,-38.47851 -12.8916,3.6e-4 -24.3026,6.34029 -31.2851,16.07226 l -51.7051,-26.97851 c 2.5473,-5.14164 3.9786,-10.93364 3.9785,-17.06055 0,-1.66258 -0.106,-3.29926 -0.3105,-4.90625 z m -450.80664,9.46875 65.45312,11.83399 c 2.0855,12.25307 9.96486,22.53349 20.71875,27.92187 l -0.1582,91.39844 c -4.07306,4.07529 -7.2368,9.06001 -9.16016,14.623046 L 763.874,-106.0326 c -2.87143,-12.04991 -11.41116,-21.90164 -22.64453,-26.58203 l 65.27343,-90.48047 c 6.947,6.84511 16.48261,11.06861 27.00586,11.06836 17.94664,-5e-4 33.02437,-12.28585 37.2793,-28.90625 z m -481.95313,8.85352 c 2.87139,6.90871 6.82768,13.25323 11.6543,18.82226 l -111.4375,201.126956 c -3.03926,0.681684 -5.94167,1.722342 -8.66211,3.0761721 L 265.87009,-172.42908 c 15.10829,-4.78942 26.17855,-18.65463 26.81055,-35.19336 z m 618.73047,15.61328 34.4356,6.02148 39.1816,6.85157 c 0.191,2.23386 0.5726,4.41294 1.1289,6.52148 l -87.08985,77.67188 c -3.5446,-1.07707 -7.30655,-1.65614 -11.20312,-1.65625 -4.26499,-1.1e-4 -8.36702,0.69368 -12.20117,1.9746 l 0.13671,-78.10351 c 0.73413,0.0418 1.47419,0.0625 2.21875,0.0625 14.28608,3.3e-4 26.75408,-7.78456 33.39258,-19.34375 z m -501.22265,2.17383 46.04297,27.89453 c 0.10546,10.86872 4.71754,20.65963 12.05664,27.59375 L 574.12595,13.442012 474.499,-192.67908 c 12.57195,-4.09526 23.56837,-11.68114 31.84375,-21.61328 z m -94.51172,11.51562 c 11.51473,8.48479 25.74411,13.49809 41.14453,13.49805 2.14637,0 4.27049,-0.0965 6.36719,-0.28711 L 570.29782,39.988887 c -4.65779,4.488758 -8.1888,10.140508 -10.12109,16.488281 L 335.98142,26.186153 c 0.005,-0.255993 0.008,-0.512338 0.008,-0.769532 4.4e-4,-18.2731119 -12.7362,-33.5722193 -29.81641,-37.501953 z m -597.78321,16.35547 c 5.26152,14.98449 19.53411,25.72696 36.31641,25.72656 11.31866,-3.2e-4 21.49632,-4.88678 28.53711,-12.66601 l 139.708985,95.505857 c -0.564285,2.62224 -0.861395,5.343831 -0.861328,8.134766 1.4e-5,0.509818 0.0096,1.018433 0.0293,1.523437 L -246.0928,41.109981 c -5.76717,-3.44852 -12.51255,-5.429857 -19.7207,-5.429688 -8.94157,2.53e-4 -17.16984,3.049708 -23.70313,8.166016 l -73.51172,-116.121094 c 13.89219,-5.804711 23.65385,-19.520221 23.6543,-35.517575 1.8e-4,-7.49125 -2.14088,-14.48154 -5.84375,-20.39453 z m 1275.19918,3.26172 c 7.0448,8.96534 17.9851,14.72426 30.2715,14.72461 9.6228,2.3e-4 18.4209,-3.53083 25.168,-9.36914 l 54.8398,28.61133 v 0.002 c -0.6492,2.8019 -0.994,5.72137 -0.9941,8.7207 -1e-4,6.27345 1.5033,12.19713 4.166,17.42969 L 1154.124,0.4830275 v 0 c -19.0178,2.3333623 -33.7456,18.5411195 -33.746,38.1894535 -10e-5,0.226899 0,0.453721 0.01,0.679687 l -80.8105,25.714844 c -6.6979,-11.324761 -19.036,-18.920254 -33.1465,-18.919922 -13.78399,3.89e-4 -25.8747,7.248187 -32.66994,18.140625 L 917.61423,36.483028 c 1.39905,-3.98816 2.16026,-8.276099 2.16016,-12.742188 C 919.774,10.024326 912.5976,-2.0159956 901.79392,-8.8294725 l 51.28711,-50.8593745 c 7.01067,9.460472 18.25828,15.592095 30.9375,15.591796 21.25087,-6e-4 38.47787,-17.227715 38.47847,-38.478515 3e-4,-11.648284 -5.1745,-22.088024 -13.3515,-29.144534 z m -861.28316,2.16406 c 6.12989,5.72785 14.13375,9.47453 22.99219,10.22071 L 266.38181,2.7896681 c -2.08953,2.8697214 -3.79091,6.0386681 -5.0293,9.4316409 L 94.706028,-69.347051 c 0.0012,-0.1239 0.0019,-0.248869 0.002,-0.373046 7.8e-5,-3.244768 -0.400083,-6.396067 -1.15625,-9.40625 z m 1251.39646,20.76758 c 4.5962,3.11774 9.9016,5.26614 15.625,6.1543 l 0.6602,179.792966 c -0.4357,-0.01461 -0.8733,-0.02147 -1.3125,-0.02149 -12.3545,-2.9e-4 -23.348,5.820926 -30.3887,14.871094 L 1381.249,5.6900588 c 2.9692,-5.45761118 4.6564,-11.7131134 4.6562,-18.3632808 -3e-4,-10.597846 -4.2854,-20.195425 -11.2167,-27.154297 z m -870.07029,7.23828 79.58203,47.55274 c -0.59583,2.69075 -0.91022,5.487381 -0.91015,8.357418 10e-5,3.603466 0.49745,7.090734 1.42383,10.398437 1.7e-4,6.08e-4 -1.7e-4,0.0013 0,0.002 L 604.05954,29.86584 c -2.28969,-0.424864 -4.65169,-0.646416 -7.06445,-0.646484 -2.36411,-5.6e-5 -4.67747,0.212928 -6.92383,0.621093 L 579.96579,-149.86463 c 3.45538,1.01844 7.11315,1.56454 10.89844,1.56445 6.67515,-1.8e-4 12.95386,-1.69911 18.42578,-4.68945 z m 604.35549,43.0957 c 6.478,4.95838 14.5772,7.90405 23.3652,7.9043 3.2722,8e-5 6.4492,-0.40717 9.4824,-1.17578 l 64.4766,78.148438 c -1.3118,3.874907 -2.0233,8.025835 -2.0234,12.34375 -2e-4,8.6335983 2.8433,16.6032677 7.6445,23.023437 l -95.3203,149.248045 c -1.7735,-0.25036 -3.5872,-0.37895 -5.4297,-0.3789 -13.8184,3.2e-4 -25.935,7.28464 -32.7207,18.22265 l -142.9473,-74.3125 c 3.0165,-5.489975 4.7323,-11.79551 4.7324,-18.501951 10e-5,-1.831884 -0.1274,-3.632852 -0.375,-5.396485 0,-6.38e-4 10e-5,-0.0013 0,-0.002 l 79.0528,-25.154297 c 5.9399,13.584708 19.4965,23.07768 35.2715,23.078125 21.2524,5e-4 38.4809,-17.228068 38.4804,-38.480468 -4e-4,-17.471427 -11.6445,-32.2230548 -27.5957,-36.9179691 z m -449.2051,18.917973 181.16797,10.72461 v 0.002 c 0.1225,2.052659 0.40601,4.06209 0.83789,6.015625 l -60.30078,59.798828 c -1.58836,-0.199771 -3.20707,-0.302696 -4.84961,-0.302735 -11.8644,-2.79e-4 -22.47442,5.3691648 -29.5332,13.81054725 L 757.38376,-74.202519 c 3.58767,-4.844325 6.06631,-10.561207 7.05664,-16.773438 z m -67.19726,18.958985 c 7.05678,8.2136 17.51928,13.415685 29.19726,13.416015 7.17544,1.69e-4 13.89275,-1.965129 19.64258,-5.384765 h 0.002 l 98.41993,76.416015 c -1.09841,3.576448 -1.68935,7.374026 -1.68946,11.310547 -4e-5,1.982825 0.15028,3.929983 0.43946,5.832031 l -77.61524,86.259769 c -5.68896,-3.32078 -12.30671,-5.22445 -19.36914,-5.22461 -17.98387,-4.3e-4 -33.08691,12.33559 -37.30664,29.00781 L 629.32126,88.578731 c 3.89266,-6.014284 6.15253,-13.183517 6.15235,-20.88086 -3.8e-4,-13.338258 -6.7871,-25.090868 -17.09571,-31.99414 z M 91.465794,-54.233769 259.10447,27.820918 c 0.16672,2.702434 0.61243,5.330477 1.30859,7.853516 L 119.31736,142.10217 c -6.7808,-8.28501 -16.94931,-13.68977 -28.390629,-14.09961 L 67.838841,-33.024785 c 10.589787,-3.346978 19.19922,-11.149166 23.626953,-21.208984 z m -70.113282,0.792968 c 1.241077,2.654063 2.777217,5.143664 4.564454,7.425782 L -136.34866,197.72131 c -4.79916,1.35062 -9.21848,3.60748 -13.06055,6.57617 l -96.51172,-97.19141 c 11.14139,-6.74075 18.5875,-18.973169 18.5879,-32.945308 1.7e-4,-8.087315 -2.4939,-15.590892 -6.75586,-21.785156 z m 16.027344,17.273438 c 4.664137,2.625858 9.930906,4.307339 15.541016,4.785156 L 76.116184,130.37756 c -14.64118,5.44317 -25.072662,19.54349 -25.072265,36.08008 7.2e-5,2.54797 0.248096,5.03774 0.720703,7.44726 l -149.228516,34.9375 c -5.328556,-5.84208 -12.434226,-10.03623 -20.460936,-11.72851 z m 1333.697244,53.849609 86.1328,36.328125 c -0.8849,3.238865 -1.3575,6.648414 -1.3574,10.167969 10e-5,4.572416 0.7981,8.959016 2.2617,13.027344 L 1244.667,172.20764 c -2.5694,-2.90335 -5.5699,-5.4149 -8.9024,-7.43555 l 92.1426,-144.275391 c 5.7227,3.374916 12.3949,5.310715 19.5195,5.310547 8.917,-2.52e-4 17.1258,-3.034123 23.6504,-8.125 z M 332.7529,40.887324 558.69236,71.410762 c 0.0341,0.356058 0.0715,0.711294 0.11523,1.064453 L 406.33493,141.7135 c -6.80527,-6.08135 -15.78799,-9.77758 -25.63281,-9.77735 -8.9653,2.6e-4 -17.21425,3.06614 -23.75586,8.20703 L 305.37009,63.092403 c 12.29794,-2.55239 22.44559,-10.974413 27.38281,-22.205079 z m 516.60547,4.326172 c 6.91152,10.259433 18.63669,17.008126 31.9375,17.007813 11.38127,-2.68e-4 21.60952,-4.940648 28.6543,-12.794922 l 58.49805,28.970703 c -0.33009,2.027868 -0.50201,4.109306 -0.50196,6.230469 1.9e-4,6.719037 1.72291,13.035965 4.75,18.533201 l -59.02539,91.88672 c -3.49012,-1.04094 -7.18912,-1.5997 -11.01758,-1.59961 -15.5211,3.7e-4 -28.89435,9.19048 -34.97851,22.42578 l -88.4336,-46.93554 c 3.49636,-5.79518 5.50761,-12.58796 5.50782,-19.84961 2e-4,-8.76821 -2.93132,-16.85127 -7.86914,-23.32227 z m -582.05078,4.048828 c 4.92088,6.223814 11.72611,10.891007 19.55273,13.140625 L 346.874,152.06311 c -2.96604,5.45537 -4.65055,11.70719 -4.65039,18.35351 3e-5,1.22926 0.0572,2.44476 0.16992,3.64453 l -135.3125,83.14063 -83.76367,-72.32813 c 2.98716,-5.46973 4.68535,-11.7447 4.68554,-18.41601 9e-5,-3.79726 -0.54956,-7.46662 -1.57422,-10.93164 z m 296.26563,37.519532 c 6.63096,11.587735 19.11437,19.396824 33.42187,19.396484 8.01592,-2.3e-4 15.45882,-2.45084 21.62109,-6.644531 l 83.22657,53.332031 -141.79688,104.47852 c -4.6e-4,-3.2e-4 -0.001,3.1e-4 -0.002,0 -6.16714,-4.20331 -13.62022,-6.6623 -21.64649,-6.66211 -12.72324,3.6e-4 -24.00283,6.17646 -31.00781,15.69336 L 411.75095,193.151 c 4.67225,-6.36955 7.4314,-14.2295 7.43164,-22.73438 1.4e-4,-5.86641 -1.31248,-11.42686 -3.66016,-16.40234 z m 902.35938,3.361328 c 1.0123,1.106608 2.0885,2.152708 3.2226,3.134765 l -16.5292,82.177731 c -17.199,3.84234 -30.0532,19.19733 -30.0528,37.55469 3e-4,11.24829 4.8265,21.36859 12.5215,28.4043 l -76.3613,196.66797 c -2.5807,-0.54564 -5.2568,-0.8321 -8,-0.83203 -0.035,0 -0.07,-10e-5 -0.1055,0 L 1233.8056,231.73693 c 12.2023,-6.45285 20.516,-19.27492 20.5157,-34.03906 -2e-4,-4.35784 -0.7235,-8.54561 -2.0586,-12.45117 -2e-4,-5.8e-4 2e-4,-0.001 0,-0.002 z M -292.84866,101.54162 c 6.94908,6.86195 16.49759,11.09736 27.03516,11.09766 1.36463,3e-5 2.71306,-0.0704 4.04101,-0.20899 l 102.47852,103.20118 c -3.23658,5.63618 -5.08806,12.1691 -5.08789,19.13476 4e-5,1.57196 0.0941,3.12195 0.27734,4.64453 l -0.3457,0.51953 0.40039,-0.0937 c 0.28538,2.16752 0.75025,4.27817 1.38086,6.31641 l -167.06641,153.75391 c -5.38998,-2.87429 -11.54512,-4.50373 -18.08008,-4.50391 -13.27219,-3.1e-4 -24.97526,6.71913 -31.89257,16.94141 L -555.56936,283.66272 Z m 1323.07426,13.32227 147.6171,76.74023 c -0.1004,0.63123 -0.1845,1.26713 -0.2539,1.9082 l -237.79488,28.31055 c -2.13291,-7.85833 -6.69312,-14.71743 -12.82617,-19.72265 l 55.91015,-87.03907 c 6.508,5.0428 14.67661,8.04467 23.5469,8.04492 8.9857,2.2e-4 17.2518,-3.08041 23.8008,-8.24218 z m -319.14262,49.82422 c 5.98499,13.47931 19.48878,22.87927 35.1875,22.8789 8.38127,-2e-4 16.13751,-2.67914 22.45703,-7.22851 l 95.45899,50.66406 c -0.007,0.30706 -0.0117,0.61503 -0.0117,0.92383 -10e-6,0.28739 0.003,0.57349 0.01,0.85937 l -289.53906,43.42578 c -1.01963,-2.85336 -2.36696,-5.55192 -3.99609,-8.04882 z M 57.596653,187.94397 c 2.102976,3.11863 4.650988,5.91103 7.552734,8.28906 L -117.10452,396.97717 c -2.58955,-0.54958 -5.27596,-0.83796 -8.0293,-0.83789 -18.73842,5.3e-4 -34.34783,13.39412 -37.77734,31.13086 l -147.38477,-1.96485 c -1.34088,-5.8894 -4.03265,-11.26478 -7.73242,-15.7832 -3e-4,-3.7e-4 3.1e-4,-0.002 0,-0.002 L -155.22366,259.6861 c 7.05831,8.2966 17.57594,13.55887 29.32227,13.5586 21.25085,-6e-4 38.477912,-17.22772 38.478512,-38.47852 1.04e-4,-4.33567 -0.71715,-8.50396 -2.039063,-12.39258 z m 289.335937,0.93164 c 1.20341,2.19674 2.6159,4.26407 4.20898,6.17382 l -34.82421,123.30664 c -9.32018,1.38911 -17.54872,6.12021 -23.42774,12.93555 l -73.89648,-63.80469 z m -233.22852,7.51562 79.9668,69.04883 -103.193358,63.4043 c -4.478608,-2.56382 -9.520985,-4.25162 -14.896484,-4.83399 L 90.422825,204.92639 c 8.811499,-0.20197 16.890245,-3.36603 23.281245,-8.53516 z m 286.78907,7.03125 100.44531,76.9043 c -0.66645,2.83659 -1.01945,5.79407 -1.01953,8.83398 -3e-5,1.07637 0.0442,2.14326 0.13086,3.19727 l -142.45313,49.32226 c -4.58183,-11.04606 -14.16196,-19.49422 -25.91797,-22.52734 l 32.22657,-114.10742 c 5.07564,2.46678 10.77437,3.84944 16.79687,3.84961 7.23745,1.7e-4 14.00838,-1.99813 19.79102,-5.47266 z M 74.954075,207.74865 60.290012,325.40881 c -14.726164,4.42859 -25.734327,17.44152 -27.210937,33.22461 l -127.802734,52.40234 c -2.263657,-2.91469 -4.936789,-5.49436 -7.933591,-7.65429 z M 1178.8896,208.4635 c 1.1689,4.01935 2.9749,7.76766 5.3028,11.12695 l -50.1856,84.96094 c -17.7164,1.95795 -31.8069,15.94449 -33.9277,33.61133 -10e-5,6.4e-4 10e-5,0.001 0,0.002 l -117.02542,49.07812 c -7.01051,-7.37336 -16.9152,-11.96901 -27.89257,-11.96875 -3.91968,1.1e-4 -7.70258,0.58639 -11.26563,1.67578 L 914.45993,268.56115 c 13.98281,-4.50281 24.47325,-16.78795 26.36719,-31.7539 z m 16.4278,21.79101 c 5.9397,3.75255 12.9781,5.92365 20.5234,5.92383 1.0654,3e-5 2.1205,-0.044 3.1641,-0.12891 l 116.2187,204.45508 c -7.2531,3.19859 -13.332,8.57147 -17.4101,15.29297 l -144.9473,-96.11133 c 2.4946,-5.0985 3.8943,-10.83013 3.8945,-16.88867 4e-4,-17.01268 -11.0387,-31.44566 -26.3457,-36.52734 z m 298.5332,2.88867 247.875,66.30664 -115.5176,75.56055 c -5.9141,-3.70549 -12.9086,-5.84744 -20.4024,-5.84765 -19.9499,-4.7e-4 -36.3538,15.18048 -38.289,34.62109 l -181.8067,55.88086 c -2.9138,-6.3334 -7.4964,-11.73878 -13.1855,-15.6543 l 75.6133,-194.74219 c 4.0366,1.43797 8.3837,2.22058 12.914,2.22071 13.871,3.2e-4 26.0276,-7.3387 32.7989,-18.34571 z M 867.44236,247.4674 c 0.54711,1.23797 1.15643,2.44016 1.82617,3.60547 l -193.47852,247.9707 c -4.42319,-1.77276 -9.25195,-2.74816 -14.30859,-2.74804 -6.20922,1.7e-4 -12.07474,1.47177 -17.26758,4.08398 L 553.10056,324.73303 c 13.40721,-5.54759 22.99711,-18.45375 23.73242,-33.6836 z m 11.90234,15.07813 c 5.65438,4.31147 12.53906,7.09269 20.03516,7.72461 6.5e-4,5e-5 10e-4,-6e-5 0.002,0 l 30.97656,114.06445 c -8.36291,7.05835 -13.67545,17.61785 -13.67578,29.41797 -10e-6,0.52613 0.0103,1.04931 0.0312,1.57031 l -224.4375,96.37305 c -1.18025,-1.5722 -2.47847,-3.05137 -3.88086,-4.42383 z m -673.76172,13.17969 79.81055,68.9121 c -1.10673,3.44638 -1.74119,7.10477 -1.82617,10.89844 l -174.32813,-0.24023 c -1.08688,-5.94271 -3.53934,-11.40855 -7.01953,-16.06055 z m 298.60742,31.07226 c 0.91794,1.77693 1.96933,3.47407 3.14258,5.07617 l -64.24414,119.47852 c -1.86353,-0.27734 -3.77023,-0.42182 -5.71094,-0.42188 -10.82548,-2.5e-4 -20.60746,4.47081 -27.59961,11.66602 l -59.92382,-59.59375 c 6.57807,-6.88013 10.62847,-16.19843 10.6621,-26.46094 z m 14.58594,15.4707 c 5.56067,3.30294 12.02375,5.24566 18.93164,5.36719 l 94.49805,182.16797 c -5.73811,6.72076 -9.20286,15.44096 -9.20313,24.9707 -3e-5,1.42016 0.0767,2.82285 0.22657,4.20313 l -82.93165,48.62305 c -7.03017,-9.21187 -18.12484,-15.1559 -30.60742,-15.15625 -6.29208,-1.5e-4 -12.23061,1.50992 -17.47461,4.1875 l -37.97851,-72.62305 c 12.80103,-6.24997 21.61946,-19.39518 21.61914,-34.59961 -3.9e-4,-13.93901 -7.41217,-26.14575 -18.50977,-32.89649 z m 582.64256,31.59961 c 4.7552,15.85554 19.4598,27.40862 36.8633,27.40821 9.7664,-2.8e-4 18.6836,-3.63914 25.4688,-9.63477 l 148.8769,98.7168 c -0.2454,1.75614 -0.3731,3.54929 -0.373,5.37304 0,3.25709 0.406,6.41896 1.1679,9.43946 l -127.3926,55.21094 c -7.0123,-7.39285 -16.9298,-12.00417 -27.9238,-12.00391 -12.4725,3.5e-4 -23.5588,5.93568 -30.5898,15.13476 L 987.57712,434.49865 c 3.83895,-5.98625 6.06463,-13.1066 6.06445,-20.74609 -1.3e-4,-4.80369 -0.8802,-9.40261 -2.48828,-13.64258 z m -992.39061,16.42969 166.125,0.22461 -97.91992,78.50977 c -6.60564,-5.3384 -15.01345,-8.5349 -24.16797,-8.53516 -7.21664,-1.7e-4 -13.96856,1.98729 -19.74023,5.44336 L 94.961887,392.68029 c 7.049833,-5.47156 12.145823,-13.34032 14.066403,-22.38281 z m -74.248043,3.84961 c 0.63904,1.96998 1.433286,3.87112 2.367187,5.6875 2.7e-4,5.2e-4 -2.69e-4,0.001 0,0.002 L 1.2489969,448.96545 -86.795925,437.95178 c 0.09428,-1.09884 0.142602,-2.21072 0.142578,-3.33399 -8.9e-5,-3.50515 -0.467547,-6.89999 -1.345703,-10.12695 z m 255.267573,3.66016 c 6.90451,10.3038 18.65537,17.08625 31.99024,17.08593 5.44308,-1.5e-4 10.62314,-1.12938 15.31641,-3.16796 l 64.13281,63.77929 c -1.67211,4.3126 -2.58971,9.0011 -2.58985,13.9043 -7e-5,3.47877 0.46285,6.84946 1.32813,10.05469 L 152.66697,608.98107 c -5.59966,-3.60396 -12.19438,-5.79581 -19.28125,-6.07031 l 11.2871,-86.37304 c 2.70165,0.60093 5.50993,0.91803 8.39258,0.91796 21.25163,-6e-4 38.47903,-17.22886 38.47852,-38.48046 -1.9e-4,-6.67614 -1.70022,-12.95522 -4.69141,-18.42774 z m -242.541011,14.6289 c 6.562016,5.20111 14.8592,8.30686 23.882813,8.30664 3.443247,-9e-5 6.78122,-0.45234 9.957031,-1.30078 l 40.792967,56.63281 c -1.70957,2.30464 -3.16801,4.80725 -4.33398,7.4668 L 17.120091,450.94787 Z M 1569.0322,419.01037 c 3.2601,10.55678 10.9413,19.17436 20.8809,23.6875 l -5.6895,219.8457 c -5.2227,1.09286 -10.056,3.24289 -14.2656,6.21875 L 1388.2041,484.52795 c 0.6608,-2.82528 1.0097,-5.7702 1.0097,-8.79688 10e-5,-0.48314 -0.01,-0.96452 -0.025,-1.44335 z m -648.71484,11.08985 c 0.90286,1.92123 1.9609,3.7547 3.15625,5.48632 l -55.65039,101.51953 c -1.4414,-0.16374 -2.90738,-0.24808 -4.39258,-0.24804 -16.93124,4.8e-4 -31.30765,10.93555 -36.45313,26.1289 L 699.93845,536.16857 c 0.0165,-0.46283 0.0235,-0.92767 0.0234,-1.39453 -10e-5,-3.29374 -0.41281,-6.48976 -1.19141,-9.54101 -1.5e-4,-6.1e-4 1.6e-4,-10e-4 0,-0.002 z m -1230.1875,10.21093 147.01953,1.96289 c 0.87509,4.33525 2.47855,8.40623 4.67773,12.08008 L -278.1885,641.87365 c -4.28584,0.43709 -8.36295,1.57621 -12.11524,3.30274 l -52.53125,-173.13282 c 16.78271,-2.16888 30.17589,-15.15208 32.96485,-31.73242 z m 1286.98437,5.05078 143.70707,111.95118 c -0.779,3.05225 -1.1935,6.25002 -1.1934,9.54492 6e-4,19.50315 14.5104,35.61775 33.3242,38.13672 l 43.9629,103.65429 v 0.002 c -3.0822,3.85081 -5.4409,8.30567 -6.8672,13.16015 L 899.50681,588.75842 c 1.55516,-4.17872 2.40441,-8.70144 2.4043,-13.42188 -4.1e-4,-14.37676 -7.88544,-26.91215 -19.56641,-33.51757 l 52.33984,-95.48047 c 5.92999,3.73455 12.95099,5.89432 20.47657,5.89453 8.16016,1.9e-4 15.72694,-2.53868 21.95312,-6.8711 z m -1068.183593,7.17188 84.9472661,10.62695 -25.8027341,49.68946 -67.013672,-50.04297 c 3.166725,-2.94393 5.835607,-6.41484 7.86914,-10.27344 z M 9.7489969,465.14514 114.59275,478.25842 v 0.002 c -0.004,0.2376 -0.008,0.47621 -0.008,0.71485 -3e-4,12.77461 6.22479,24.09473 15.80664,31.09375 l -12.4707,95.41796 c -5.19341,2.02069 -9.839,5.13701 -13.6543,9.06446 L -19.747097,521.94592 Z M -147.6885,465.79748 c 6.33757,4.59313 14.12925,7.30054 22.55468,7.30078 4.27951,1e-4 8.39682,-0.69898 12.24219,-1.98828 h 0.002 l 73.958989,55.23047 -97.351559,187.47461 c -1.7396,-0.24073 -3.51646,-0.36518 -5.32227,-0.36524 -13.81117,-3.2e-4 -25.92269,7.27507 -32.71094,18.20313 l -67.09375,-31.41602 c 3.58421,-5.84609 5.65019,-12.72415 5.65039,-20.08398 3.6e-4,-16.82827 -10.80103,-31.13298 -25.84961,-36.35938 z m 554.58789,27.10547 c 7.03688,9.11586 18.07176,14.98662 30.47851,14.98633 0.64891,-2e-5 1.29452,-0.0171 1.93555,-0.0488 h 0.002 l 40.94141,78.29492 c -5.64479,6.69558 -9.04664,15.34399 -9.04688,24.78711 -1.6e-4,7.67081 2.24531,14.81692 6.11329,20.81836 l -154.5586,138.86914 c -6.5e-4,-2e-5 -0.001,3e-5 -0.002,0 -0.49859,-0.0192 -1.00063,-0.0293 -1.50391,-0.0293 -13.5464,-3.1e-4 -25.45744,7.00018 -32.31445,17.58008 L 161.72947,665.63342 c 5.38841,-6.6211 8.61888,-15.06947 8.61914,-24.27149 1.9e-4,-7.88997 -2.37384,-15.22495 -6.44727,-21.33007 z m 912.97661,5.81836 c 2.3363,3.13067 5.1383,5.89428 8.3027,8.1875 l -89.1094,189.23047 c -3.8041,-1.25892 -7.8714,-1.94129 -12.0976,-1.94141 -6.504,-1.5e-4 -12.6302,1.61423 -18.002,4.46289 l -40.2109,-94.8164 c 16.0704,-4.61939 27.8276,-19.43014 27.8281,-36.98633 10e-5,-4.79845 -0.8779,-9.39075 -2.4824,-13.62696 z m 61.5195,0.26172 178.2226,180.6582 c -3.769,5.949 -5.9533,13.00285 -5.9531,20.56641 2e-4,7.65971 2.2397,14.79706 6.0977,20.79297 l -188.336,189.1875 -123.5566,-145.19532 c 10.3209,-6.68873 17.2357,-18.18796 17.5684,-31.32226 l 136.414,-68.59375 c 6.9798,7.09301 16.6903,11.49188 27.4277,11.49219 21.2524,4.9e-4 38.481,-17.22807 38.4805,-38.48047 -5e-4,-21.2517 -17.2288,-38.47902 -38.4805,-38.47852 -4.4188,1.3e-4 -8.663,0.74607 -12.6152,2.11719 l -49.7558,-91.07227 c 5.734,-2.66018 10.7031,-6.69117 14.4863,-11.67187 z m -39.586,14.18554 c 2.8639,0.68012 5.852,1.04093 8.9239,1.04102 0.341,10e-6 0.6806,-0.005 1.0195,-0.0137 l 51.9688,95.1289 c -7.9266,7.04816 -12.9197,17.32245 -12.92,28.76368 -10e-5,5.0777 0.9847,9.92507 2.7715,14.36328 L 1262.665,718.276 c -2.3048,-5.7065 -5.9387,-10.7344 -10.5176,-14.69922 z m -1368.560503,22.26758 122.84375,91.73242 c -1.60492,4.04209 -2.544137,8.42015 -2.683594,13 L -108.2178,732.78576 c -3.3072,-5.7553 -8.06112,-10.57523 -13.76367,-13.96289 z m 723.242183,15.33399 128.54493,27.13672 v 0.002 c 1.3234,20.05191 18.00758,35.90763 38.39453,35.9082 11.09406,2.6e-4 21.09257,-4.69394 28.11523,-12.20508 l 297.27733,136.13868 c 0.1651,1.25358 0.3891,2.48667 0.6719,3.69921 l -257.48243,44.88086 c -5.66337,-14.19738 -19.53823,-24.23085 -35.75586,-24.23046 -8.22684,-2e-4 -15.85051,2.58118 -22.10547,6.97851 L 690.05759,560.54553 c 2.61165,-2.89405 4.79108,-6.18626 6.43359,-9.77539 z M -304.22757,704.26428 c 7.05294,8.76046 17.86613,14.36684 29.98829,14.36719 8.17941,1.9e-4 15.76348,-2.55316 21.99804,-6.9043 h 0.002 l 72.64843,34.01953 c -0.3251,2.01268 -0.49408,4.07722 -0.49414,6.18164 -1.7e-4,7.15604 1.95491,13.85621 5.35742,19.5957 3e-4,5e-4 -2.9e-4,10e-4 0,0.002 L -282.24905,906.65686 -500.17288,806.10412 Z" />
  </g>
</svg>
